%TF.GenerationSoftware,KiCad,Pcbnew,7.0.1*%
%TF.CreationDate,2025-05-10T20:46:24+01:00*%
%TF.ProjectId,LitSIMM-16MB_30,4c697453-494d-44d2-9d31-364d425f3330,rev?*%
%TF.SameCoordinates,Original*%
%TF.FileFunction,Legend,Top*%
%TF.FilePolarity,Positive*%
%FSLAX46Y46*%
G04 Gerber Fmt 4.6, Leading zero omitted, Abs format (unit mm)*
G04 Created by KiCad (PCBNEW 7.0.1) date 2025-05-10 20:46:24*
%MOMM*%
%LPD*%
G01*
G04 APERTURE LIST*
%ADD10C,0.150000*%
%ADD11C,0.120000*%
G04 APERTURE END LIST*
D10*
X110068419Y-91913104D02*
X109068419Y-91913104D01*
X109068419Y-91913104D02*
X110068419Y-91341676D01*
X110068419Y-91341676D02*
X109068419Y-91341676D01*
X109068419Y-90675009D02*
X109068419Y-90484533D01*
X109068419Y-90484533D02*
X109116038Y-90389295D01*
X109116038Y-90389295D02*
X109211276Y-90294057D01*
X109211276Y-90294057D02*
X109401752Y-90246438D01*
X109401752Y-90246438D02*
X109735085Y-90246438D01*
X109735085Y-90246438D02*
X109925561Y-90294057D01*
X109925561Y-90294057D02*
X110020800Y-90389295D01*
X110020800Y-90389295D02*
X110068419Y-90484533D01*
X110068419Y-90484533D02*
X110068419Y-90675009D01*
X110068419Y-90675009D02*
X110020800Y-90770247D01*
X110020800Y-90770247D02*
X109925561Y-90865485D01*
X109925561Y-90865485D02*
X109735085Y-90913104D01*
X109735085Y-90913104D02*
X109401752Y-90913104D01*
X109401752Y-90913104D02*
X109211276Y-90865485D01*
X109211276Y-90865485D02*
X109116038Y-90770247D01*
X109116038Y-90770247D02*
X109068419Y-90675009D01*
X110068419Y-89817866D02*
X109068419Y-89817866D01*
X109068419Y-89817866D02*
X110068419Y-89246438D01*
X110068419Y-89246438D02*
X109068419Y-89246438D01*
X109687466Y-88770247D02*
X109687466Y-88008343D01*
X110068419Y-87532152D02*
X109068419Y-87532152D01*
X109068419Y-87532152D02*
X109068419Y-87151200D01*
X109068419Y-87151200D02*
X109116038Y-87055962D01*
X109116038Y-87055962D02*
X109163657Y-87008343D01*
X109163657Y-87008343D02*
X109258895Y-86960724D01*
X109258895Y-86960724D02*
X109401752Y-86960724D01*
X109401752Y-86960724D02*
X109496990Y-87008343D01*
X109496990Y-87008343D02*
X109544609Y-87055962D01*
X109544609Y-87055962D02*
X109592228Y-87151200D01*
X109592228Y-87151200D02*
X109592228Y-87532152D01*
X109782704Y-86579771D02*
X109782704Y-86103581D01*
X110068419Y-86675009D02*
X109068419Y-86341676D01*
X109068419Y-86341676D02*
X110068419Y-86008343D01*
X110068419Y-85103581D02*
X109592228Y-85436914D01*
X110068419Y-85675009D02*
X109068419Y-85675009D01*
X109068419Y-85675009D02*
X109068419Y-85294057D01*
X109068419Y-85294057D02*
X109116038Y-85198819D01*
X109116038Y-85198819D02*
X109163657Y-85151200D01*
X109163657Y-85151200D02*
X109258895Y-85103581D01*
X109258895Y-85103581D02*
X109401752Y-85103581D01*
X109401752Y-85103581D02*
X109496990Y-85151200D01*
X109496990Y-85151200D02*
X109544609Y-85198819D01*
X109544609Y-85198819D02*
X109592228Y-85294057D01*
X109592228Y-85294057D02*
X109592228Y-85675009D01*
X110068419Y-84675009D02*
X109068419Y-84675009D01*
X109068419Y-84341676D02*
X109068419Y-83770248D01*
X110068419Y-84055962D02*
X109068419Y-84055962D01*
X109592228Y-83246438D02*
X110068419Y-83246438D01*
X109068419Y-83579771D02*
X109592228Y-83246438D01*
X109592228Y-83246438D02*
X109068419Y-82913105D01*
X111688419Y-91389295D02*
X111688419Y-91960723D01*
X111688419Y-91675009D02*
X110688419Y-91675009D01*
X110688419Y-91675009D02*
X110831276Y-91770247D01*
X110831276Y-91770247D02*
X110926514Y-91865485D01*
X110926514Y-91865485D02*
X110974133Y-91960723D01*
X110688419Y-90532152D02*
X110688419Y-90722628D01*
X110688419Y-90722628D02*
X110736038Y-90817866D01*
X110736038Y-90817866D02*
X110783657Y-90865485D01*
X110783657Y-90865485D02*
X110926514Y-90960723D01*
X110926514Y-90960723D02*
X111116990Y-91008342D01*
X111116990Y-91008342D02*
X111497942Y-91008342D01*
X111497942Y-91008342D02*
X111593180Y-90960723D01*
X111593180Y-90960723D02*
X111640800Y-90913104D01*
X111640800Y-90913104D02*
X111688419Y-90817866D01*
X111688419Y-90817866D02*
X111688419Y-90627390D01*
X111688419Y-90627390D02*
X111640800Y-90532152D01*
X111640800Y-90532152D02*
X111593180Y-90484533D01*
X111593180Y-90484533D02*
X111497942Y-90436914D01*
X111497942Y-90436914D02*
X111259847Y-90436914D01*
X111259847Y-90436914D02*
X111164609Y-90484533D01*
X111164609Y-90484533D02*
X111116990Y-90532152D01*
X111116990Y-90532152D02*
X111069371Y-90627390D01*
X111069371Y-90627390D02*
X111069371Y-90817866D01*
X111069371Y-90817866D02*
X111116990Y-90913104D01*
X111116990Y-90913104D02*
X111164609Y-90960723D01*
X111164609Y-90960723D02*
X111259847Y-91008342D01*
X111688419Y-90008342D02*
X110688419Y-90008342D01*
X110688419Y-90008342D02*
X111402704Y-89675009D01*
X111402704Y-89675009D02*
X110688419Y-89341676D01*
X110688419Y-89341676D02*
X111688419Y-89341676D01*
X111164609Y-88532152D02*
X111212228Y-88389295D01*
X111212228Y-88389295D02*
X111259847Y-88341676D01*
X111259847Y-88341676D02*
X111355085Y-88294057D01*
X111355085Y-88294057D02*
X111497942Y-88294057D01*
X111497942Y-88294057D02*
X111593180Y-88341676D01*
X111593180Y-88341676D02*
X111640800Y-88389295D01*
X111640800Y-88389295D02*
X111688419Y-88484533D01*
X111688419Y-88484533D02*
X111688419Y-88865485D01*
X111688419Y-88865485D02*
X110688419Y-88865485D01*
X110688419Y-88865485D02*
X110688419Y-88532152D01*
X110688419Y-88532152D02*
X110736038Y-88436914D01*
X110736038Y-88436914D02*
X110783657Y-88389295D01*
X110783657Y-88389295D02*
X110878895Y-88341676D01*
X110878895Y-88341676D02*
X110974133Y-88341676D01*
X110974133Y-88341676D02*
X111069371Y-88389295D01*
X111069371Y-88389295D02*
X111116990Y-88436914D01*
X111116990Y-88436914D02*
X111164609Y-88532152D01*
X111164609Y-88532152D02*
X111164609Y-88865485D01*
X111164609Y-86770247D02*
X111164609Y-87103580D01*
X111688419Y-87103580D02*
X110688419Y-87103580D01*
X110688419Y-87103580D02*
X110688419Y-86627390D01*
X111688419Y-86246437D02*
X110688419Y-86246437D01*
X110688419Y-86246437D02*
X110688419Y-85865485D01*
X110688419Y-85865485D02*
X110736038Y-85770247D01*
X110736038Y-85770247D02*
X110783657Y-85722628D01*
X110783657Y-85722628D02*
X110878895Y-85675009D01*
X110878895Y-85675009D02*
X111021752Y-85675009D01*
X111021752Y-85675009D02*
X111116990Y-85722628D01*
X111116990Y-85722628D02*
X111164609Y-85770247D01*
X111164609Y-85770247D02*
X111212228Y-85865485D01*
X111212228Y-85865485D02*
X111212228Y-86246437D01*
X111688419Y-85246437D02*
X110688419Y-85246437D01*
X110688419Y-85246437D02*
X111402704Y-84913104D01*
X111402704Y-84913104D02*
X110688419Y-84579771D01*
X110688419Y-84579771D02*
X111688419Y-84579771D01*
%TO.C,U5*%
X156734619Y-94233904D02*
X157544142Y-94233904D01*
X157544142Y-94233904D02*
X157639380Y-94186285D01*
X157639380Y-94186285D02*
X157687000Y-94138666D01*
X157687000Y-94138666D02*
X157734619Y-94043428D01*
X157734619Y-94043428D02*
X157734619Y-93852952D01*
X157734619Y-93852952D02*
X157687000Y-93757714D01*
X157687000Y-93757714D02*
X157639380Y-93710095D01*
X157639380Y-93710095D02*
X157544142Y-93662476D01*
X157544142Y-93662476D02*
X156734619Y-93662476D01*
X156734619Y-92710095D02*
X156734619Y-93186285D01*
X156734619Y-93186285D02*
X157210809Y-93233904D01*
X157210809Y-93233904D02*
X157163190Y-93186285D01*
X157163190Y-93186285D02*
X157115571Y-93091047D01*
X157115571Y-93091047D02*
X157115571Y-92852952D01*
X157115571Y-92852952D02*
X157163190Y-92757714D01*
X157163190Y-92757714D02*
X157210809Y-92710095D01*
X157210809Y-92710095D02*
X157306047Y-92662476D01*
X157306047Y-92662476D02*
X157544142Y-92662476D01*
X157544142Y-92662476D02*
X157639380Y-92710095D01*
X157639380Y-92710095D02*
X157687000Y-92757714D01*
X157687000Y-92757714D02*
X157734619Y-92852952D01*
X157734619Y-92852952D02*
X157734619Y-93091047D01*
X157734619Y-93091047D02*
X157687000Y-93186285D01*
X157687000Y-93186285D02*
X157639380Y-93233904D01*
%TO.C,C8*%
X186510333Y-87649380D02*
X186462714Y-87697000D01*
X186462714Y-87697000D02*
X186319857Y-87744619D01*
X186319857Y-87744619D02*
X186224619Y-87744619D01*
X186224619Y-87744619D02*
X186081762Y-87697000D01*
X186081762Y-87697000D02*
X185986524Y-87601761D01*
X185986524Y-87601761D02*
X185938905Y-87506523D01*
X185938905Y-87506523D02*
X185891286Y-87316047D01*
X185891286Y-87316047D02*
X185891286Y-87173190D01*
X185891286Y-87173190D02*
X185938905Y-86982714D01*
X185938905Y-86982714D02*
X185986524Y-86887476D01*
X185986524Y-86887476D02*
X186081762Y-86792238D01*
X186081762Y-86792238D02*
X186224619Y-86744619D01*
X186224619Y-86744619D02*
X186319857Y-86744619D01*
X186319857Y-86744619D02*
X186462714Y-86792238D01*
X186462714Y-86792238D02*
X186510333Y-86839857D01*
X187081762Y-87173190D02*
X186986524Y-87125571D01*
X186986524Y-87125571D02*
X186938905Y-87077952D01*
X186938905Y-87077952D02*
X186891286Y-86982714D01*
X186891286Y-86982714D02*
X186891286Y-86935095D01*
X186891286Y-86935095D02*
X186938905Y-86839857D01*
X186938905Y-86839857D02*
X186986524Y-86792238D01*
X186986524Y-86792238D02*
X187081762Y-86744619D01*
X187081762Y-86744619D02*
X187272238Y-86744619D01*
X187272238Y-86744619D02*
X187367476Y-86792238D01*
X187367476Y-86792238D02*
X187415095Y-86839857D01*
X187415095Y-86839857D02*
X187462714Y-86935095D01*
X187462714Y-86935095D02*
X187462714Y-86982714D01*
X187462714Y-86982714D02*
X187415095Y-87077952D01*
X187415095Y-87077952D02*
X187367476Y-87125571D01*
X187367476Y-87125571D02*
X187272238Y-87173190D01*
X187272238Y-87173190D02*
X187081762Y-87173190D01*
X187081762Y-87173190D02*
X186986524Y-87220809D01*
X186986524Y-87220809D02*
X186938905Y-87268428D01*
X186938905Y-87268428D02*
X186891286Y-87363666D01*
X186891286Y-87363666D02*
X186891286Y-87554142D01*
X186891286Y-87554142D02*
X186938905Y-87649380D01*
X186938905Y-87649380D02*
X186986524Y-87697000D01*
X186986524Y-87697000D02*
X187081762Y-87744619D01*
X187081762Y-87744619D02*
X187272238Y-87744619D01*
X187272238Y-87744619D02*
X187367476Y-87697000D01*
X187367476Y-87697000D02*
X187415095Y-87649380D01*
X187415095Y-87649380D02*
X187462714Y-87554142D01*
X187462714Y-87554142D02*
X187462714Y-87363666D01*
X187462714Y-87363666D02*
X187415095Y-87268428D01*
X187415095Y-87268428D02*
X187367476Y-87220809D01*
X187367476Y-87220809D02*
X187272238Y-87173190D01*
%TO.C,SIMM-30*%
X189903505Y-83320600D02*
X190046362Y-83368219D01*
X190046362Y-83368219D02*
X190284457Y-83368219D01*
X190284457Y-83368219D02*
X190379695Y-83320600D01*
X190379695Y-83320600D02*
X190427314Y-83272980D01*
X190427314Y-83272980D02*
X190474933Y-83177742D01*
X190474933Y-83177742D02*
X190474933Y-83082504D01*
X190474933Y-83082504D02*
X190427314Y-82987266D01*
X190427314Y-82987266D02*
X190379695Y-82939647D01*
X190379695Y-82939647D02*
X190284457Y-82892028D01*
X190284457Y-82892028D02*
X190093981Y-82844409D01*
X190093981Y-82844409D02*
X189998743Y-82796790D01*
X189998743Y-82796790D02*
X189951124Y-82749171D01*
X189951124Y-82749171D02*
X189903505Y-82653933D01*
X189903505Y-82653933D02*
X189903505Y-82558695D01*
X189903505Y-82558695D02*
X189951124Y-82463457D01*
X189951124Y-82463457D02*
X189998743Y-82415838D01*
X189998743Y-82415838D02*
X190093981Y-82368219D01*
X190093981Y-82368219D02*
X190332076Y-82368219D01*
X190332076Y-82368219D02*
X190474933Y-82415838D01*
X190903505Y-83368219D02*
X190903505Y-82368219D01*
X191379695Y-83368219D02*
X191379695Y-82368219D01*
X191379695Y-82368219D02*
X191713028Y-83082504D01*
X191713028Y-83082504D02*
X192046361Y-82368219D01*
X192046361Y-82368219D02*
X192046361Y-83368219D01*
X192522552Y-83368219D02*
X192522552Y-82368219D01*
X192522552Y-82368219D02*
X192855885Y-83082504D01*
X192855885Y-83082504D02*
X193189218Y-82368219D01*
X193189218Y-82368219D02*
X193189218Y-83368219D01*
X193665409Y-82987266D02*
X194427314Y-82987266D01*
X194808266Y-82368219D02*
X195427313Y-82368219D01*
X195427313Y-82368219D02*
X195093980Y-82749171D01*
X195093980Y-82749171D02*
X195236837Y-82749171D01*
X195236837Y-82749171D02*
X195332075Y-82796790D01*
X195332075Y-82796790D02*
X195379694Y-82844409D01*
X195379694Y-82844409D02*
X195427313Y-82939647D01*
X195427313Y-82939647D02*
X195427313Y-83177742D01*
X195427313Y-83177742D02*
X195379694Y-83272980D01*
X195379694Y-83272980D02*
X195332075Y-83320600D01*
X195332075Y-83320600D02*
X195236837Y-83368219D01*
X195236837Y-83368219D02*
X194951123Y-83368219D01*
X194951123Y-83368219D02*
X194855885Y-83320600D01*
X194855885Y-83320600D02*
X194808266Y-83272980D01*
X196046361Y-82368219D02*
X196141599Y-82368219D01*
X196141599Y-82368219D02*
X196236837Y-82415838D01*
X196236837Y-82415838D02*
X196284456Y-82463457D01*
X196284456Y-82463457D02*
X196332075Y-82558695D01*
X196332075Y-82558695D02*
X196379694Y-82749171D01*
X196379694Y-82749171D02*
X196379694Y-82987266D01*
X196379694Y-82987266D02*
X196332075Y-83177742D01*
X196332075Y-83177742D02*
X196284456Y-83272980D01*
X196284456Y-83272980D02*
X196236837Y-83320600D01*
X196236837Y-83320600D02*
X196141599Y-83368219D01*
X196141599Y-83368219D02*
X196046361Y-83368219D01*
X196046361Y-83368219D02*
X195951123Y-83320600D01*
X195951123Y-83320600D02*
X195903504Y-83272980D01*
X195903504Y-83272980D02*
X195855885Y-83177742D01*
X195855885Y-83177742D02*
X195808266Y-82987266D01*
X195808266Y-82987266D02*
X195808266Y-82749171D01*
X195808266Y-82749171D02*
X195855885Y-82558695D01*
X195855885Y-82558695D02*
X195903504Y-82463457D01*
X195903504Y-82463457D02*
X195951123Y-82415838D01*
X195951123Y-82415838D02*
X196046361Y-82368219D01*
X188586976Y-101680619D02*
X189206023Y-101680619D01*
X189206023Y-101680619D02*
X188872690Y-102061571D01*
X188872690Y-102061571D02*
X189015547Y-102061571D01*
X189015547Y-102061571D02*
X189110785Y-102109190D01*
X189110785Y-102109190D02*
X189158404Y-102156809D01*
X189158404Y-102156809D02*
X189206023Y-102252047D01*
X189206023Y-102252047D02*
X189206023Y-102490142D01*
X189206023Y-102490142D02*
X189158404Y-102585380D01*
X189158404Y-102585380D02*
X189110785Y-102633000D01*
X189110785Y-102633000D02*
X189015547Y-102680619D01*
X189015547Y-102680619D02*
X188729833Y-102680619D01*
X188729833Y-102680619D02*
X188634595Y-102633000D01*
X188634595Y-102633000D02*
X188586976Y-102585380D01*
X189825071Y-101680619D02*
X189920309Y-101680619D01*
X189920309Y-101680619D02*
X190015547Y-101728238D01*
X190015547Y-101728238D02*
X190063166Y-101775857D01*
X190063166Y-101775857D02*
X190110785Y-101871095D01*
X190110785Y-101871095D02*
X190158404Y-102061571D01*
X190158404Y-102061571D02*
X190158404Y-102299666D01*
X190158404Y-102299666D02*
X190110785Y-102490142D01*
X190110785Y-102490142D02*
X190063166Y-102585380D01*
X190063166Y-102585380D02*
X190015547Y-102633000D01*
X190015547Y-102633000D02*
X189920309Y-102680619D01*
X189920309Y-102680619D02*
X189825071Y-102680619D01*
X189825071Y-102680619D02*
X189729833Y-102633000D01*
X189729833Y-102633000D02*
X189682214Y-102585380D01*
X189682214Y-102585380D02*
X189634595Y-102490142D01*
X189634595Y-102490142D02*
X189586976Y-102299666D01*
X189586976Y-102299666D02*
X189586976Y-102061571D01*
X189586976Y-102061571D02*
X189634595Y-101871095D01*
X189634595Y-101871095D02*
X189682214Y-101775857D01*
X189682214Y-101775857D02*
X189729833Y-101728238D01*
X189729833Y-101728238D02*
X189825071Y-101680619D01*
X116022214Y-102807619D02*
X115450786Y-102807619D01*
X115736500Y-102807619D02*
X115736500Y-101807619D01*
X115736500Y-101807619D02*
X115641262Y-101950476D01*
X115641262Y-101950476D02*
X115546024Y-102045714D01*
X115546024Y-102045714D02*
X115450786Y-102093333D01*
%TO.C,U1*%
X117710619Y-94233904D02*
X118520142Y-94233904D01*
X118520142Y-94233904D02*
X118615380Y-94186285D01*
X118615380Y-94186285D02*
X118663000Y-94138666D01*
X118663000Y-94138666D02*
X118710619Y-94043428D01*
X118710619Y-94043428D02*
X118710619Y-93852952D01*
X118710619Y-93852952D02*
X118663000Y-93757714D01*
X118663000Y-93757714D02*
X118615380Y-93710095D01*
X118615380Y-93710095D02*
X118520142Y-93662476D01*
X118520142Y-93662476D02*
X117710619Y-93662476D01*
X118710619Y-92662476D02*
X118710619Y-93233904D01*
X118710619Y-92948190D02*
X117710619Y-92948190D01*
X117710619Y-92948190D02*
X117853476Y-93043428D01*
X117853476Y-93043428D02*
X117948714Y-93138666D01*
X117948714Y-93138666D02*
X117996333Y-93233904D01*
%TO.C,C2*%
X127849333Y-87649380D02*
X127801714Y-87697000D01*
X127801714Y-87697000D02*
X127658857Y-87744619D01*
X127658857Y-87744619D02*
X127563619Y-87744619D01*
X127563619Y-87744619D02*
X127420762Y-87697000D01*
X127420762Y-87697000D02*
X127325524Y-87601761D01*
X127325524Y-87601761D02*
X127277905Y-87506523D01*
X127277905Y-87506523D02*
X127230286Y-87316047D01*
X127230286Y-87316047D02*
X127230286Y-87173190D01*
X127230286Y-87173190D02*
X127277905Y-86982714D01*
X127277905Y-86982714D02*
X127325524Y-86887476D01*
X127325524Y-86887476D02*
X127420762Y-86792238D01*
X127420762Y-86792238D02*
X127563619Y-86744619D01*
X127563619Y-86744619D02*
X127658857Y-86744619D01*
X127658857Y-86744619D02*
X127801714Y-86792238D01*
X127801714Y-86792238D02*
X127849333Y-86839857D01*
X128230286Y-86839857D02*
X128277905Y-86792238D01*
X128277905Y-86792238D02*
X128373143Y-86744619D01*
X128373143Y-86744619D02*
X128611238Y-86744619D01*
X128611238Y-86744619D02*
X128706476Y-86792238D01*
X128706476Y-86792238D02*
X128754095Y-86839857D01*
X128754095Y-86839857D02*
X128801714Y-86935095D01*
X128801714Y-86935095D02*
X128801714Y-87030333D01*
X128801714Y-87030333D02*
X128754095Y-87173190D01*
X128754095Y-87173190D02*
X128182667Y-87744619D01*
X128182667Y-87744619D02*
X128801714Y-87744619D01*
%TO.C,C6*%
X166965333Y-87649380D02*
X166917714Y-87697000D01*
X166917714Y-87697000D02*
X166774857Y-87744619D01*
X166774857Y-87744619D02*
X166679619Y-87744619D01*
X166679619Y-87744619D02*
X166536762Y-87697000D01*
X166536762Y-87697000D02*
X166441524Y-87601761D01*
X166441524Y-87601761D02*
X166393905Y-87506523D01*
X166393905Y-87506523D02*
X166346286Y-87316047D01*
X166346286Y-87316047D02*
X166346286Y-87173190D01*
X166346286Y-87173190D02*
X166393905Y-86982714D01*
X166393905Y-86982714D02*
X166441524Y-86887476D01*
X166441524Y-86887476D02*
X166536762Y-86792238D01*
X166536762Y-86792238D02*
X166679619Y-86744619D01*
X166679619Y-86744619D02*
X166774857Y-86744619D01*
X166774857Y-86744619D02*
X166917714Y-86792238D01*
X166917714Y-86792238D02*
X166965333Y-86839857D01*
X167822476Y-86744619D02*
X167632000Y-86744619D01*
X167632000Y-86744619D02*
X167536762Y-86792238D01*
X167536762Y-86792238D02*
X167489143Y-86839857D01*
X167489143Y-86839857D02*
X167393905Y-86982714D01*
X167393905Y-86982714D02*
X167346286Y-87173190D01*
X167346286Y-87173190D02*
X167346286Y-87554142D01*
X167346286Y-87554142D02*
X167393905Y-87649380D01*
X167393905Y-87649380D02*
X167441524Y-87697000D01*
X167441524Y-87697000D02*
X167536762Y-87744619D01*
X167536762Y-87744619D02*
X167727238Y-87744619D01*
X167727238Y-87744619D02*
X167822476Y-87697000D01*
X167822476Y-87697000D02*
X167870095Y-87649380D01*
X167870095Y-87649380D02*
X167917714Y-87554142D01*
X167917714Y-87554142D02*
X167917714Y-87316047D01*
X167917714Y-87316047D02*
X167870095Y-87220809D01*
X167870095Y-87220809D02*
X167822476Y-87173190D01*
X167822476Y-87173190D02*
X167727238Y-87125571D01*
X167727238Y-87125571D02*
X167536762Y-87125571D01*
X167536762Y-87125571D02*
X167441524Y-87173190D01*
X167441524Y-87173190D02*
X167393905Y-87220809D01*
X167393905Y-87220809D02*
X167346286Y-87316047D01*
%TO.C,U3*%
X137222619Y-94233904D02*
X138032142Y-94233904D01*
X138032142Y-94233904D02*
X138127380Y-94186285D01*
X138127380Y-94186285D02*
X138175000Y-94138666D01*
X138175000Y-94138666D02*
X138222619Y-94043428D01*
X138222619Y-94043428D02*
X138222619Y-93852952D01*
X138222619Y-93852952D02*
X138175000Y-93757714D01*
X138175000Y-93757714D02*
X138127380Y-93710095D01*
X138127380Y-93710095D02*
X138032142Y-93662476D01*
X138032142Y-93662476D02*
X137222619Y-93662476D01*
X137222619Y-93281523D02*
X137222619Y-92662476D01*
X137222619Y-92662476D02*
X137603571Y-92995809D01*
X137603571Y-92995809D02*
X137603571Y-92852952D01*
X137603571Y-92852952D02*
X137651190Y-92757714D01*
X137651190Y-92757714D02*
X137698809Y-92710095D01*
X137698809Y-92710095D02*
X137794047Y-92662476D01*
X137794047Y-92662476D02*
X138032142Y-92662476D01*
X138032142Y-92662476D02*
X138127380Y-92710095D01*
X138127380Y-92710095D02*
X138175000Y-92757714D01*
X138175000Y-92757714D02*
X138222619Y-92852952D01*
X138222619Y-92852952D02*
X138222619Y-93138666D01*
X138222619Y-93138666D02*
X138175000Y-93233904D01*
X138175000Y-93233904D02*
X138127380Y-93281523D01*
%TO.C,U6*%
X166490619Y-94233904D02*
X167300142Y-94233904D01*
X167300142Y-94233904D02*
X167395380Y-94186285D01*
X167395380Y-94186285D02*
X167443000Y-94138666D01*
X167443000Y-94138666D02*
X167490619Y-94043428D01*
X167490619Y-94043428D02*
X167490619Y-93852952D01*
X167490619Y-93852952D02*
X167443000Y-93757714D01*
X167443000Y-93757714D02*
X167395380Y-93710095D01*
X167395380Y-93710095D02*
X167300142Y-93662476D01*
X167300142Y-93662476D02*
X166490619Y-93662476D01*
X166490619Y-92757714D02*
X166490619Y-92948190D01*
X166490619Y-92948190D02*
X166538238Y-93043428D01*
X166538238Y-93043428D02*
X166585857Y-93091047D01*
X166585857Y-93091047D02*
X166728714Y-93186285D01*
X166728714Y-93186285D02*
X166919190Y-93233904D01*
X166919190Y-93233904D02*
X167300142Y-93233904D01*
X167300142Y-93233904D02*
X167395380Y-93186285D01*
X167395380Y-93186285D02*
X167443000Y-93138666D01*
X167443000Y-93138666D02*
X167490619Y-93043428D01*
X167490619Y-93043428D02*
X167490619Y-92852952D01*
X167490619Y-92852952D02*
X167443000Y-92757714D01*
X167443000Y-92757714D02*
X167395380Y-92710095D01*
X167395380Y-92710095D02*
X167300142Y-92662476D01*
X167300142Y-92662476D02*
X167062047Y-92662476D01*
X167062047Y-92662476D02*
X166966809Y-92710095D01*
X166966809Y-92710095D02*
X166919190Y-92757714D01*
X166919190Y-92757714D02*
X166871571Y-92852952D01*
X166871571Y-92852952D02*
X166871571Y-93043428D01*
X166871571Y-93043428D02*
X166919190Y-93138666D01*
X166919190Y-93138666D02*
X166966809Y-93186285D01*
X166966809Y-93186285D02*
X167062047Y-93233904D01*
%TO.C,U8*%
X186002619Y-94233904D02*
X186812142Y-94233904D01*
X186812142Y-94233904D02*
X186907380Y-94186285D01*
X186907380Y-94186285D02*
X186955000Y-94138666D01*
X186955000Y-94138666D02*
X187002619Y-94043428D01*
X187002619Y-94043428D02*
X187002619Y-93852952D01*
X187002619Y-93852952D02*
X186955000Y-93757714D01*
X186955000Y-93757714D02*
X186907380Y-93710095D01*
X186907380Y-93710095D02*
X186812142Y-93662476D01*
X186812142Y-93662476D02*
X186002619Y-93662476D01*
X186431190Y-93043428D02*
X186383571Y-93138666D01*
X186383571Y-93138666D02*
X186335952Y-93186285D01*
X186335952Y-93186285D02*
X186240714Y-93233904D01*
X186240714Y-93233904D02*
X186193095Y-93233904D01*
X186193095Y-93233904D02*
X186097857Y-93186285D01*
X186097857Y-93186285D02*
X186050238Y-93138666D01*
X186050238Y-93138666D02*
X186002619Y-93043428D01*
X186002619Y-93043428D02*
X186002619Y-92852952D01*
X186002619Y-92852952D02*
X186050238Y-92757714D01*
X186050238Y-92757714D02*
X186097857Y-92710095D01*
X186097857Y-92710095D02*
X186193095Y-92662476D01*
X186193095Y-92662476D02*
X186240714Y-92662476D01*
X186240714Y-92662476D02*
X186335952Y-92710095D01*
X186335952Y-92710095D02*
X186383571Y-92757714D01*
X186383571Y-92757714D02*
X186431190Y-92852952D01*
X186431190Y-92852952D02*
X186431190Y-93043428D01*
X186431190Y-93043428D02*
X186478809Y-93138666D01*
X186478809Y-93138666D02*
X186526428Y-93186285D01*
X186526428Y-93186285D02*
X186621666Y-93233904D01*
X186621666Y-93233904D02*
X186812142Y-93233904D01*
X186812142Y-93233904D02*
X186907380Y-93186285D01*
X186907380Y-93186285D02*
X186955000Y-93138666D01*
X186955000Y-93138666D02*
X187002619Y-93043428D01*
X187002619Y-93043428D02*
X187002619Y-92852952D01*
X187002619Y-92852952D02*
X186955000Y-92757714D01*
X186955000Y-92757714D02*
X186907380Y-92710095D01*
X186907380Y-92710095D02*
X186812142Y-92662476D01*
X186812142Y-92662476D02*
X186621666Y-92662476D01*
X186621666Y-92662476D02*
X186526428Y-92710095D01*
X186526428Y-92710095D02*
X186478809Y-92757714D01*
X186478809Y-92757714D02*
X186431190Y-92852952D01*
%TO.C,C7*%
X176617333Y-87649380D02*
X176569714Y-87697000D01*
X176569714Y-87697000D02*
X176426857Y-87744619D01*
X176426857Y-87744619D02*
X176331619Y-87744619D01*
X176331619Y-87744619D02*
X176188762Y-87697000D01*
X176188762Y-87697000D02*
X176093524Y-87601761D01*
X176093524Y-87601761D02*
X176045905Y-87506523D01*
X176045905Y-87506523D02*
X175998286Y-87316047D01*
X175998286Y-87316047D02*
X175998286Y-87173190D01*
X175998286Y-87173190D02*
X176045905Y-86982714D01*
X176045905Y-86982714D02*
X176093524Y-86887476D01*
X176093524Y-86887476D02*
X176188762Y-86792238D01*
X176188762Y-86792238D02*
X176331619Y-86744619D01*
X176331619Y-86744619D02*
X176426857Y-86744619D01*
X176426857Y-86744619D02*
X176569714Y-86792238D01*
X176569714Y-86792238D02*
X176617333Y-86839857D01*
X176950667Y-86744619D02*
X177617333Y-86744619D01*
X177617333Y-86744619D02*
X177188762Y-87744619D01*
%TO.C,C3*%
X137501333Y-87649380D02*
X137453714Y-87697000D01*
X137453714Y-87697000D02*
X137310857Y-87744619D01*
X137310857Y-87744619D02*
X137215619Y-87744619D01*
X137215619Y-87744619D02*
X137072762Y-87697000D01*
X137072762Y-87697000D02*
X136977524Y-87601761D01*
X136977524Y-87601761D02*
X136929905Y-87506523D01*
X136929905Y-87506523D02*
X136882286Y-87316047D01*
X136882286Y-87316047D02*
X136882286Y-87173190D01*
X136882286Y-87173190D02*
X136929905Y-86982714D01*
X136929905Y-86982714D02*
X136977524Y-86887476D01*
X136977524Y-86887476D02*
X137072762Y-86792238D01*
X137072762Y-86792238D02*
X137215619Y-86744619D01*
X137215619Y-86744619D02*
X137310857Y-86744619D01*
X137310857Y-86744619D02*
X137453714Y-86792238D01*
X137453714Y-86792238D02*
X137501333Y-86839857D01*
X137834667Y-86744619D02*
X138453714Y-86744619D01*
X138453714Y-86744619D02*
X138120381Y-87125571D01*
X138120381Y-87125571D02*
X138263238Y-87125571D01*
X138263238Y-87125571D02*
X138358476Y-87173190D01*
X138358476Y-87173190D02*
X138406095Y-87220809D01*
X138406095Y-87220809D02*
X138453714Y-87316047D01*
X138453714Y-87316047D02*
X138453714Y-87554142D01*
X138453714Y-87554142D02*
X138406095Y-87649380D01*
X138406095Y-87649380D02*
X138358476Y-87697000D01*
X138358476Y-87697000D02*
X138263238Y-87744619D01*
X138263238Y-87744619D02*
X137977524Y-87744619D01*
X137977524Y-87744619D02*
X137882286Y-87697000D01*
X137882286Y-87697000D02*
X137834667Y-87649380D01*
%TO.C,C5*%
X157313333Y-87649380D02*
X157265714Y-87697000D01*
X157265714Y-87697000D02*
X157122857Y-87744619D01*
X157122857Y-87744619D02*
X157027619Y-87744619D01*
X157027619Y-87744619D02*
X156884762Y-87697000D01*
X156884762Y-87697000D02*
X156789524Y-87601761D01*
X156789524Y-87601761D02*
X156741905Y-87506523D01*
X156741905Y-87506523D02*
X156694286Y-87316047D01*
X156694286Y-87316047D02*
X156694286Y-87173190D01*
X156694286Y-87173190D02*
X156741905Y-86982714D01*
X156741905Y-86982714D02*
X156789524Y-86887476D01*
X156789524Y-86887476D02*
X156884762Y-86792238D01*
X156884762Y-86792238D02*
X157027619Y-86744619D01*
X157027619Y-86744619D02*
X157122857Y-86744619D01*
X157122857Y-86744619D02*
X157265714Y-86792238D01*
X157265714Y-86792238D02*
X157313333Y-86839857D01*
X158218095Y-86744619D02*
X157741905Y-86744619D01*
X157741905Y-86744619D02*
X157694286Y-87220809D01*
X157694286Y-87220809D02*
X157741905Y-87173190D01*
X157741905Y-87173190D02*
X157837143Y-87125571D01*
X157837143Y-87125571D02*
X158075238Y-87125571D01*
X158075238Y-87125571D02*
X158170476Y-87173190D01*
X158170476Y-87173190D02*
X158218095Y-87220809D01*
X158218095Y-87220809D02*
X158265714Y-87316047D01*
X158265714Y-87316047D02*
X158265714Y-87554142D01*
X158265714Y-87554142D02*
X158218095Y-87649380D01*
X158218095Y-87649380D02*
X158170476Y-87697000D01*
X158170476Y-87697000D02*
X158075238Y-87744619D01*
X158075238Y-87744619D02*
X157837143Y-87744619D01*
X157837143Y-87744619D02*
X157741905Y-87697000D01*
X157741905Y-87697000D02*
X157694286Y-87649380D01*
%TO.C,R1*%
X192238619Y-91098666D02*
X191762428Y-91431999D01*
X192238619Y-91670094D02*
X191238619Y-91670094D01*
X191238619Y-91670094D02*
X191238619Y-91289142D01*
X191238619Y-91289142D02*
X191286238Y-91193904D01*
X191286238Y-91193904D02*
X191333857Y-91146285D01*
X191333857Y-91146285D02*
X191429095Y-91098666D01*
X191429095Y-91098666D02*
X191571952Y-91098666D01*
X191571952Y-91098666D02*
X191667190Y-91146285D01*
X191667190Y-91146285D02*
X191714809Y-91193904D01*
X191714809Y-91193904D02*
X191762428Y-91289142D01*
X191762428Y-91289142D02*
X191762428Y-91670094D01*
X192238619Y-90146285D02*
X192238619Y-90717713D01*
X192238619Y-90431999D02*
X191238619Y-90431999D01*
X191238619Y-90431999D02*
X191381476Y-90527237D01*
X191381476Y-90527237D02*
X191476714Y-90622475D01*
X191476714Y-90622475D02*
X191524333Y-90717713D01*
%TO.C,C1*%
X118197333Y-87649380D02*
X118149714Y-87697000D01*
X118149714Y-87697000D02*
X118006857Y-87744619D01*
X118006857Y-87744619D02*
X117911619Y-87744619D01*
X117911619Y-87744619D02*
X117768762Y-87697000D01*
X117768762Y-87697000D02*
X117673524Y-87601761D01*
X117673524Y-87601761D02*
X117625905Y-87506523D01*
X117625905Y-87506523D02*
X117578286Y-87316047D01*
X117578286Y-87316047D02*
X117578286Y-87173190D01*
X117578286Y-87173190D02*
X117625905Y-86982714D01*
X117625905Y-86982714D02*
X117673524Y-86887476D01*
X117673524Y-86887476D02*
X117768762Y-86792238D01*
X117768762Y-86792238D02*
X117911619Y-86744619D01*
X117911619Y-86744619D02*
X118006857Y-86744619D01*
X118006857Y-86744619D02*
X118149714Y-86792238D01*
X118149714Y-86792238D02*
X118197333Y-86839857D01*
X119149714Y-87744619D02*
X118578286Y-87744619D01*
X118864000Y-87744619D02*
X118864000Y-86744619D01*
X118864000Y-86744619D02*
X118768762Y-86887476D01*
X118768762Y-86887476D02*
X118673524Y-86982714D01*
X118673524Y-86982714D02*
X118578286Y-87030333D01*
%TO.C,C4*%
X147420333Y-87649380D02*
X147372714Y-87697000D01*
X147372714Y-87697000D02*
X147229857Y-87744619D01*
X147229857Y-87744619D02*
X147134619Y-87744619D01*
X147134619Y-87744619D02*
X146991762Y-87697000D01*
X146991762Y-87697000D02*
X146896524Y-87601761D01*
X146896524Y-87601761D02*
X146848905Y-87506523D01*
X146848905Y-87506523D02*
X146801286Y-87316047D01*
X146801286Y-87316047D02*
X146801286Y-87173190D01*
X146801286Y-87173190D02*
X146848905Y-86982714D01*
X146848905Y-86982714D02*
X146896524Y-86887476D01*
X146896524Y-86887476D02*
X146991762Y-86792238D01*
X146991762Y-86792238D02*
X147134619Y-86744619D01*
X147134619Y-86744619D02*
X147229857Y-86744619D01*
X147229857Y-86744619D02*
X147372714Y-86792238D01*
X147372714Y-86792238D02*
X147420333Y-86839857D01*
X148277476Y-87077952D02*
X148277476Y-87744619D01*
X148039381Y-86697000D02*
X147801286Y-87411285D01*
X147801286Y-87411285D02*
X148420333Y-87411285D01*
%TO.C,U4*%
X146978619Y-94233904D02*
X147788142Y-94233904D01*
X147788142Y-94233904D02*
X147883380Y-94186285D01*
X147883380Y-94186285D02*
X147931000Y-94138666D01*
X147931000Y-94138666D02*
X147978619Y-94043428D01*
X147978619Y-94043428D02*
X147978619Y-93852952D01*
X147978619Y-93852952D02*
X147931000Y-93757714D01*
X147931000Y-93757714D02*
X147883380Y-93710095D01*
X147883380Y-93710095D02*
X147788142Y-93662476D01*
X147788142Y-93662476D02*
X146978619Y-93662476D01*
X147311952Y-92757714D02*
X147978619Y-92757714D01*
X146931000Y-92995809D02*
X147645285Y-93233904D01*
X147645285Y-93233904D02*
X147645285Y-92614857D01*
%TO.C,U7*%
X176246619Y-94233904D02*
X177056142Y-94233904D01*
X177056142Y-94233904D02*
X177151380Y-94186285D01*
X177151380Y-94186285D02*
X177199000Y-94138666D01*
X177199000Y-94138666D02*
X177246619Y-94043428D01*
X177246619Y-94043428D02*
X177246619Y-93852952D01*
X177246619Y-93852952D02*
X177199000Y-93757714D01*
X177199000Y-93757714D02*
X177151380Y-93710095D01*
X177151380Y-93710095D02*
X177056142Y-93662476D01*
X177056142Y-93662476D02*
X176246619Y-93662476D01*
X176246619Y-93281523D02*
X176246619Y-92614857D01*
X176246619Y-92614857D02*
X177246619Y-93043428D01*
%TO.C,U2*%
X127466619Y-94233904D02*
X128276142Y-94233904D01*
X128276142Y-94233904D02*
X128371380Y-94186285D01*
X128371380Y-94186285D02*
X128419000Y-94138666D01*
X128419000Y-94138666D02*
X128466619Y-94043428D01*
X128466619Y-94043428D02*
X128466619Y-93852952D01*
X128466619Y-93852952D02*
X128419000Y-93757714D01*
X128419000Y-93757714D02*
X128371380Y-93710095D01*
X128371380Y-93710095D02*
X128276142Y-93662476D01*
X128276142Y-93662476D02*
X127466619Y-93662476D01*
X127561857Y-93233904D02*
X127514238Y-93186285D01*
X127514238Y-93186285D02*
X127466619Y-93091047D01*
X127466619Y-93091047D02*
X127466619Y-92852952D01*
X127466619Y-92852952D02*
X127514238Y-92757714D01*
X127514238Y-92757714D02*
X127561857Y-92710095D01*
X127561857Y-92710095D02*
X127657095Y-92662476D01*
X127657095Y-92662476D02*
X127752333Y-92662476D01*
X127752333Y-92662476D02*
X127895190Y-92710095D01*
X127895190Y-92710095D02*
X128466619Y-93281523D01*
X128466619Y-93281523D02*
X128466619Y-92662476D01*
%TO.C,U5*%
X154859000Y-101981000D02*
X154859000Y-84963000D01*
X156256000Y-101981000D02*
X154859000Y-101981000D01*
X159685000Y-101981000D02*
X158288000Y-101981000D01*
X154859000Y-84963000D02*
X159685000Y-84963000D01*
X159685000Y-84963000D02*
X159685000Y-101981000D01*
D11*
X158288000Y-101981000D02*
G75*
G03*
X156256000Y-101981000I-1016000J0D01*
G01*
%TO.C,C8*%
X186817580Y-86362000D02*
X186536420Y-86362000D01*
X186817580Y-85342000D02*
X186536420Y-85342000D01*
%TO.C,LED5*%
X155195000Y-82177000D02*
X155195000Y-84447000D01*
X155195000Y-84447000D02*
X159080000Y-84447000D01*
X159080000Y-82177000D02*
X155195000Y-82177000D01*
D10*
%TO.C,U1*%
X115835000Y-101981000D02*
X115835000Y-84963000D01*
X117232000Y-101981000D02*
X115835000Y-101981000D01*
X120661000Y-101981000D02*
X119264000Y-101981000D01*
X115835000Y-84963000D02*
X120661000Y-84963000D01*
X120661000Y-84963000D02*
X120661000Y-101981000D01*
D11*
X119264000Y-101981000D02*
G75*
G03*
X117232000Y-101981000I-1016000J0D01*
G01*
%TO.C,C2*%
X128156580Y-86362000D02*
X127875420Y-86362000D01*
X128156580Y-85342000D02*
X127875420Y-85342000D01*
%TO.C,C6*%
X167272580Y-86362000D02*
X166991420Y-86362000D01*
X167272580Y-85342000D02*
X166991420Y-85342000D01*
%TO.C,LED1*%
X116079000Y-82177000D02*
X116079000Y-84447000D01*
X116079000Y-84447000D02*
X119964000Y-84447000D01*
X119964000Y-82177000D02*
X116079000Y-82177000D01*
%TO.C,LED3*%
X135383000Y-82177000D02*
X135383000Y-84447000D01*
X135383000Y-84447000D02*
X139268000Y-84447000D01*
X139268000Y-82177000D02*
X135383000Y-82177000D01*
D10*
%TO.C,U3*%
X135347000Y-101981000D02*
X135347000Y-84963000D01*
X136744000Y-101981000D02*
X135347000Y-101981000D01*
X140173000Y-101981000D02*
X138776000Y-101981000D01*
X135347000Y-84963000D02*
X140173000Y-84963000D01*
X140173000Y-84963000D02*
X140173000Y-101981000D01*
D11*
X138776000Y-101981000D02*
G75*
G03*
X136744000Y-101981000I-1016000J0D01*
G01*
D10*
%TO.C,U6*%
X164615000Y-101981000D02*
X164615000Y-84963000D01*
X166012000Y-101981000D02*
X164615000Y-101981000D01*
X169441000Y-101981000D02*
X168044000Y-101981000D01*
X164615000Y-84963000D02*
X169441000Y-84963000D01*
X169441000Y-84963000D02*
X169441000Y-101981000D01*
D11*
X168044000Y-101981000D02*
G75*
G03*
X166012000Y-101981000I-1016000J0D01*
G01*
D10*
%TO.C,U8*%
X184127000Y-101981000D02*
X184127000Y-84963000D01*
X185524000Y-101981000D02*
X184127000Y-101981000D01*
X188953000Y-101981000D02*
X187556000Y-101981000D01*
X184127000Y-84963000D02*
X188953000Y-84963000D01*
X188953000Y-84963000D02*
X188953000Y-101981000D01*
D11*
X187556000Y-101981000D02*
G75*
G03*
X185524000Y-101981000I-1016000J0D01*
G01*
%TO.C,C7*%
X176924580Y-86362000D02*
X176643420Y-86362000D01*
X176924580Y-85342000D02*
X176643420Y-85342000D01*
%TO.C,C3*%
X137808580Y-86362000D02*
X137527420Y-86362000D01*
X137808580Y-85342000D02*
X137527420Y-85342000D01*
%TO.C,LED4*%
X145035000Y-82177000D02*
X145035000Y-84447000D01*
X145035000Y-84447000D02*
X148920000Y-84447000D01*
X148920000Y-82177000D02*
X145035000Y-82177000D01*
%TO.C,LED8*%
X184151000Y-82177000D02*
X184151000Y-84447000D01*
X184151000Y-84447000D02*
X188036000Y-84447000D01*
X188036000Y-82177000D02*
X184151000Y-82177000D01*
%TO.C,C5*%
X157620580Y-86362000D02*
X157339420Y-86362000D01*
X157620580Y-85342000D02*
X157339420Y-85342000D01*
%TO.C,R1*%
X192701000Y-91655737D02*
X192701000Y-90208263D01*
X195411000Y-91655737D02*
X195411000Y-90208263D01*
%TO.C,LED2*%
X125731000Y-82177000D02*
X125731000Y-84447000D01*
X125731000Y-84447000D02*
X129616000Y-84447000D01*
X129616000Y-82177000D02*
X125731000Y-82177000D01*
%TO.C,LED7*%
X174499000Y-82177000D02*
X174499000Y-84447000D01*
X174499000Y-84447000D02*
X178384000Y-84447000D01*
X178384000Y-82177000D02*
X174499000Y-82177000D01*
%TO.C,C1*%
X118504580Y-86362000D02*
X118223420Y-86362000D01*
X118504580Y-85342000D02*
X118223420Y-85342000D01*
%TO.C,LED6*%
X164847000Y-82177000D02*
X164847000Y-84447000D01*
X164847000Y-84447000D02*
X168732000Y-84447000D01*
X168732000Y-82177000D02*
X164847000Y-82177000D01*
%TO.C,C4*%
X147727580Y-86362000D02*
X147446420Y-86362000D01*
X147727580Y-85342000D02*
X147446420Y-85342000D01*
D10*
%TO.C,U4*%
X145103000Y-101981000D02*
X145103000Y-84963000D01*
X146500000Y-101981000D02*
X145103000Y-101981000D01*
X149929000Y-101981000D02*
X148532000Y-101981000D01*
X145103000Y-84963000D02*
X149929000Y-84963000D01*
X149929000Y-84963000D02*
X149929000Y-101981000D01*
D11*
X148532000Y-101981000D02*
G75*
G03*
X146500000Y-101981000I-1016000J0D01*
G01*
D10*
%TO.C,U7*%
X174371000Y-101981000D02*
X174371000Y-84963000D01*
X175768000Y-101981000D02*
X174371000Y-101981000D01*
X179197000Y-101981000D02*
X177800000Y-101981000D01*
X174371000Y-84963000D02*
X179197000Y-84963000D01*
X179197000Y-84963000D02*
X179197000Y-101981000D01*
D11*
X177800000Y-101981000D02*
G75*
G03*
X175768000Y-101981000I-1016000J0D01*
G01*
D10*
%TO.C,U2*%
X125591000Y-101981000D02*
X125591000Y-84963000D01*
X126988000Y-101981000D02*
X125591000Y-101981000D01*
X130417000Y-101981000D02*
X129020000Y-101981000D01*
X125591000Y-84963000D02*
X130417000Y-84963000D01*
X130417000Y-84963000D02*
X130417000Y-101981000D01*
D11*
X129020000Y-101981000D02*
G75*
G03*
X126988000Y-101981000I-1016000J0D01*
G01*
%TD*%
M02*
