%TF.GenerationSoftware,KiCad,Pcbnew,7.0.1*%
%TF.CreationDate,2025-05-10T20:46:24+01:00*%
%TF.ProjectId,LitSIMM-16MB_30,4c697453-494d-44d2-9d31-364d425f3330,rev?*%
%TF.SameCoordinates,Original*%
%TF.FileFunction,Paste,Top*%
%TF.FilePolarity,Positive*%
%FSLAX46Y46*%
G04 Gerber Fmt 4.6, Leading zero omitted, Abs format (unit mm)*
G04 Created by KiCad (PCBNEW 7.0.1) date 2025-05-10 20:46:24*
%MOMM*%
%LPD*%
G01*
G04 APERTURE LIST*
G04 Aperture macros list*
%AMRoundRect*
0 Rectangle with rounded corners*
0 $1 Rounding radius*
0 $2 $3 $4 $5 $6 $7 $8 $9 X,Y pos of 4 corners*
0 Add a 4 corners polygon primitive as box body*
4,1,4,$2,$3,$4,$5,$6,$7,$8,$9,$2,$3,0*
0 Add four circle primitives for the rounded corners*
1,1,$1+$1,$2,$3*
1,1,$1+$1,$4,$5*
1,1,$1+$1,$6,$7*
1,1,$1+$1,$8,$9*
0 Add four rect primitives between the rounded corners*
20,1,$1+$1,$2,$3,$4,$5,0*
20,1,$1+$1,$4,$5,$6,$7,0*
20,1,$1+$1,$6,$7,$8,$9,0*
20,1,$1+$1,$8,$9,$2,$3,0*%
G04 Aperture macros list end*
%ADD10R,1.644000X0.800000*%
%ADD11R,1.644000X0.790000*%
%ADD12RoundRect,0.225000X0.225000X0.250000X-0.225000X0.250000X-0.225000X-0.250000X0.225000X-0.250000X0*%
%ADD13RoundRect,0.250000X-0.375000X-0.625000X0.375000X-0.625000X0.375000X0.625000X-0.375000X0.625000X0*%
%ADD14RoundRect,0.250000X1.075000X-0.312500X1.075000X0.312500X-1.075000X0.312500X-1.075000X-0.312500X0*%
G04 APERTURE END LIST*
D10*
%TO.C,U5*%
X160650000Y-101092000D03*
X160650000Y-99822000D03*
X160650000Y-98552000D03*
X160650000Y-97282000D03*
X160650000Y-96012000D03*
X160650000Y-94742000D03*
X160650000Y-92202000D03*
X160650000Y-90932000D03*
D11*
X160650000Y-89667000D03*
D10*
X160650000Y-88392000D03*
X160650000Y-87122000D03*
X160650000Y-85852000D03*
X153894000Y-85852000D03*
X153894000Y-87122000D03*
X153894000Y-88392000D03*
X153894000Y-89662000D03*
X153894000Y-90932000D03*
X153894000Y-92202000D03*
X153894000Y-94742000D03*
X153894000Y-96012000D03*
X153894000Y-97282000D03*
X153894000Y-98552000D03*
X153894000Y-99822000D03*
X153894000Y-101092000D03*
%TD*%
D12*
%TO.C,C8*%
X187452000Y-85852000D03*
X185902000Y-85852000D03*
%TD*%
D13*
%TO.C,LED5*%
X156080000Y-83312000D03*
X158880000Y-83312000D03*
%TD*%
D10*
%TO.C,U1*%
X121626000Y-101092000D03*
X121626000Y-99822000D03*
X121626000Y-98552000D03*
X121626000Y-97282000D03*
X121626000Y-96012000D03*
X121626000Y-94742000D03*
X121626000Y-92202000D03*
X121626000Y-90932000D03*
D11*
X121626000Y-89667000D03*
D10*
X121626000Y-88392000D03*
X121626000Y-87122000D03*
X121626000Y-85852000D03*
X114870000Y-85852000D03*
X114870000Y-87122000D03*
X114870000Y-88392000D03*
X114870000Y-89662000D03*
X114870000Y-90932000D03*
X114870000Y-92202000D03*
X114870000Y-94742000D03*
X114870000Y-96012000D03*
X114870000Y-97282000D03*
X114870000Y-98552000D03*
X114870000Y-99822000D03*
X114870000Y-101092000D03*
%TD*%
D12*
%TO.C,C2*%
X128791000Y-85852000D03*
X127241000Y-85852000D03*
%TD*%
%TO.C,C6*%
X167907000Y-85852000D03*
X166357000Y-85852000D03*
%TD*%
D13*
%TO.C,LED1*%
X116964000Y-83312000D03*
X119764000Y-83312000D03*
%TD*%
%TO.C,LED3*%
X136268000Y-83312000D03*
X139068000Y-83312000D03*
%TD*%
D10*
%TO.C,U3*%
X141138000Y-101092000D03*
X141138000Y-99822000D03*
X141138000Y-98552000D03*
X141138000Y-97282000D03*
X141138000Y-96012000D03*
X141138000Y-94742000D03*
X141138000Y-92202000D03*
X141138000Y-90932000D03*
D11*
X141138000Y-89667000D03*
D10*
X141138000Y-88392000D03*
X141138000Y-87122000D03*
X141138000Y-85852000D03*
X134382000Y-85852000D03*
X134382000Y-87122000D03*
X134382000Y-88392000D03*
X134382000Y-89662000D03*
X134382000Y-90932000D03*
X134382000Y-92202000D03*
X134382000Y-94742000D03*
X134382000Y-96012000D03*
X134382000Y-97282000D03*
X134382000Y-98552000D03*
X134382000Y-99822000D03*
X134382000Y-101092000D03*
%TD*%
%TO.C,U6*%
X170406000Y-101092000D03*
X170406000Y-99822000D03*
X170406000Y-98552000D03*
X170406000Y-97282000D03*
X170406000Y-96012000D03*
X170406000Y-94742000D03*
X170406000Y-92202000D03*
X170406000Y-90932000D03*
D11*
X170406000Y-89667000D03*
D10*
X170406000Y-88392000D03*
X170406000Y-87122000D03*
X170406000Y-85852000D03*
X163650000Y-85852000D03*
X163650000Y-87122000D03*
X163650000Y-88392000D03*
X163650000Y-89662000D03*
X163650000Y-90932000D03*
X163650000Y-92202000D03*
X163650000Y-94742000D03*
X163650000Y-96012000D03*
X163650000Y-97282000D03*
X163650000Y-98552000D03*
X163650000Y-99822000D03*
X163650000Y-101092000D03*
%TD*%
%TO.C,U8*%
X189918000Y-101092000D03*
X189918000Y-99822000D03*
X189918000Y-98552000D03*
X189918000Y-97282000D03*
X189918000Y-96012000D03*
X189918000Y-94742000D03*
X189918000Y-92202000D03*
X189918000Y-90932000D03*
D11*
X189918000Y-89667000D03*
D10*
X189918000Y-88392000D03*
X189918000Y-87122000D03*
X189918000Y-85852000D03*
X183162000Y-85852000D03*
X183162000Y-87122000D03*
X183162000Y-88392000D03*
X183162000Y-89662000D03*
X183162000Y-90932000D03*
X183162000Y-92202000D03*
X183162000Y-94742000D03*
X183162000Y-96012000D03*
X183162000Y-97282000D03*
X183162000Y-98552000D03*
X183162000Y-99822000D03*
X183162000Y-101092000D03*
%TD*%
D12*
%TO.C,C7*%
X177559000Y-85852000D03*
X176009000Y-85852000D03*
%TD*%
%TO.C,C3*%
X138443000Y-85852000D03*
X136893000Y-85852000D03*
%TD*%
D13*
%TO.C,LED4*%
X145920000Y-83312000D03*
X148720000Y-83312000D03*
%TD*%
%TO.C,LED8*%
X185036000Y-83312000D03*
X187836000Y-83312000D03*
%TD*%
D12*
%TO.C,C5*%
X158255000Y-85852000D03*
X156705000Y-85852000D03*
%TD*%
D14*
%TO.C,R1*%
X194056000Y-92394500D03*
X194056000Y-89469500D03*
%TD*%
D13*
%TO.C,LED2*%
X126616000Y-83312000D03*
X129416000Y-83312000D03*
%TD*%
%TO.C,LED7*%
X175384000Y-83312000D03*
X178184000Y-83312000D03*
%TD*%
D12*
%TO.C,C1*%
X119139000Y-85852000D03*
X117589000Y-85852000D03*
%TD*%
D13*
%TO.C,LED6*%
X165732000Y-83312000D03*
X168532000Y-83312000D03*
%TD*%
D12*
%TO.C,C4*%
X148362000Y-85852000D03*
X146812000Y-85852000D03*
%TD*%
D10*
%TO.C,U4*%
X150894000Y-101092000D03*
X150894000Y-99822000D03*
X150894000Y-98552000D03*
X150894000Y-97282000D03*
X150894000Y-96012000D03*
X150894000Y-94742000D03*
X150894000Y-92202000D03*
X150894000Y-90932000D03*
D11*
X150894000Y-89667000D03*
D10*
X150894000Y-88392000D03*
X150894000Y-87122000D03*
X150894000Y-85852000D03*
X144138000Y-85852000D03*
X144138000Y-87122000D03*
X144138000Y-88392000D03*
X144138000Y-89662000D03*
X144138000Y-90932000D03*
X144138000Y-92202000D03*
X144138000Y-94742000D03*
X144138000Y-96012000D03*
X144138000Y-97282000D03*
X144138000Y-98552000D03*
X144138000Y-99822000D03*
X144138000Y-101092000D03*
%TD*%
%TO.C,U7*%
X180162000Y-101092000D03*
X180162000Y-99822000D03*
X180162000Y-98552000D03*
X180162000Y-97282000D03*
X180162000Y-96012000D03*
X180162000Y-94742000D03*
X180162000Y-92202000D03*
X180162000Y-90932000D03*
D11*
X180162000Y-89667000D03*
D10*
X180162000Y-88392000D03*
X180162000Y-87122000D03*
X180162000Y-85852000D03*
X173406000Y-85852000D03*
X173406000Y-87122000D03*
X173406000Y-88392000D03*
X173406000Y-89662000D03*
X173406000Y-90932000D03*
X173406000Y-92202000D03*
X173406000Y-94742000D03*
X173406000Y-96012000D03*
X173406000Y-97282000D03*
X173406000Y-98552000D03*
X173406000Y-99822000D03*
X173406000Y-101092000D03*
%TD*%
%TO.C,U2*%
X131382000Y-101092000D03*
X131382000Y-99822000D03*
X131382000Y-98552000D03*
X131382000Y-97282000D03*
X131382000Y-96012000D03*
X131382000Y-94742000D03*
X131382000Y-92202000D03*
X131382000Y-90932000D03*
D11*
X131382000Y-89667000D03*
D10*
X131382000Y-88392000D03*
X131382000Y-87122000D03*
X131382000Y-85852000D03*
X124626000Y-85852000D03*
X124626000Y-87122000D03*
X124626000Y-88392000D03*
X124626000Y-89662000D03*
X124626000Y-90932000D03*
X124626000Y-92202000D03*
X124626000Y-94742000D03*
X124626000Y-96012000D03*
X124626000Y-97282000D03*
X124626000Y-98552000D03*
X124626000Y-99822000D03*
X124626000Y-101092000D03*
%TD*%
M02*
