M48
; DRILL file {KiCad 7.0.1} date Sat May 10 20:46:36 2025
; FORMAT={-:-/ absolute / inch / decimal}
; #@! TF.CreationDate,2025-05-10T20:46:36+01:00
; #@! TF.GenerationSoftware,Kicad,Pcbnew,7.0.1
; #@! TF.FileFunction,Plated,1,2,PTH
FMAT,2
INCH
; #@! TA.AperFunction,Plated,PTH,ViaDrill
T1C0.0157
; #@! TA.AperFunction,Plated,PTH,ComponentDrill
T2C0.0177
; #@! TA.AperFunction,Plated,PTH,ViaDrill
T3C0.0197
; #@! TA.AperFunction,Plated,PTH,ViaDrill
T4C0.0236
%
G90
G05
T1
X4.58Y-3.412
X4.58Y-3.742
X4.59Y-3.83
X4.604Y-3.48
X4.642Y-3.58
X4.644Y-3.4584
X4.678Y-3.53
X4.688Y-3.684
X4.722Y-3.723
X4.722Y-3.78
X4.724Y-3.83
X4.726Y-3.438
X4.728Y-3.606
X4.728Y-3.6549
X4.842Y-3.544
X4.852Y-3.412
X4.906Y-3.6835
X4.96Y-3.7515
X4.964Y-3.5775
X4.972Y-3.5155
X4.986Y-3.88
X5.02Y-3.4869
X5.064Y-3.4584
X5.086Y-3.606
X5.104Y-3.78
X5.104Y-3.83
X5.1049Y-3.4165
X5.106Y-3.5489
X5.11Y-3.712
X5.118Y-3.6375
X5.234Y-3.412
X5.29Y-3.6835
X5.352Y-3.7515
X5.354Y-3.5155
X5.356Y-3.5775
X5.364Y-3.88
X5.39Y-3.4869
X5.444Y-3.4584
X5.46Y-3.606
X5.492Y-3.43
X5.492Y-3.5489
X5.496Y-3.6375
X5.496Y-3.78
X5.496Y-3.83
X5.502Y-3.712
X5.6122Y-3.4001
X5.674Y-3.6835
X5.7335Y-3.5155
X5.736Y-3.5775
X5.736Y-3.7515
X5.748Y-3.88
X5.776Y-3.4869
X5.82Y-3.4692
X5.822Y-3.9085
X5.856Y-3.43
X5.856Y-3.606
X5.876Y-3.5489
X5.878Y-3.78
X5.878Y-3.83
X5.884Y-3.6375
X5.886Y-3.712
X6.002Y-3.4
X6.002Y-3.4869
X6.118Y-3.5155
X6.12Y-3.5775
X6.12Y-3.7515
X6.126Y-3.88
X6.158Y-3.666
X6.1806Y-3.9115
X6.22Y-3.7515
X6.22Y-3.9115
X6.2244Y-3.4585
X6.25Y-3.606
X6.252Y-3.5489
X6.258Y-3.4285
X6.262Y-3.78
X6.262Y-3.83
X6.264Y-3.712
X6.378Y-3.6375
X6.384Y-3.4
X6.384Y-3.48
X6.384Y-3.5775
X6.406Y-3.666
X6.504Y-3.5155
X6.504Y-3.7515
X6.504Y-3.88
X6.566Y-3.83
X6.584Y-3.78
X6.606Y-3.46
X6.62Y-3.91
X6.63Y-3.4285
X6.644Y-3.5489
X6.65Y-3.606
X6.768Y-3.48
X6.768Y-3.5775
X6.77Y-3.402
X6.77Y-3.7015
X6.77Y-3.9085
X6.826Y-3.6665
X6.888Y-3.5155
X6.888Y-3.7515
X6.888Y-3.88
X6.9Y-3.938
X6.956Y-3.4515
X6.984Y-3.954
X6.994Y-3.606
X7.012Y-3.4305
X7.022Y-3.5489
X7.022Y-3.78
X7.026Y-3.83
X7.028Y-3.6375
X7.149Y-3.5775
X7.152Y-3.75
X7.154Y-3.516
X7.154Y-3.666
X7.154Y-3.83
X7.1557Y-3.401
X7.27Y-3.506
X7.314Y-3.83
X7.348Y-3.638
X7.378Y-3.48
X7.398Y-3.55
X7.4Y-3.43
X7.406Y-3.6015
X7.408Y-3.78
T2
X4.5566Y-4.0793
X4.6566Y-4.0793
X4.7566Y-4.0793
X4.8566Y-4.0793
X4.9566Y-4.0793
X5.0566Y-4.0793
X5.1566Y-4.0793
X5.2566Y-4.0793
X5.3566Y-4.0793
X5.4566Y-4.0793
X5.5566Y-4.0793
X5.6566Y-4.0793
X5.7566Y-4.0793
X5.8566Y-4.0793
X5.9566Y-4.0793
X6.0566Y-4.0793
X6.1566Y-4.0793
X6.2566Y-4.0793
X6.3566Y-4.0793
X6.4566Y-4.0793
X6.5566Y-4.0793
X6.6566Y-4.0793
X6.7566Y-4.0793
X6.8566Y-4.0793
X6.9566Y-4.0793
X7.0566Y-4.0793
X7.1566Y-4.0793
X7.2566Y-4.0793
X7.3566Y-4.0793
X7.4566Y-4.0793
T3
X4.5827Y-3.3688
X4.618Y-3.974
X4.618Y-4.03
X4.692Y-3.974
X4.692Y-4.03
X5.821Y-4.03
X5.895Y-4.03
X6.559Y-4.024
X6.633Y-4.024
X7.121Y-4.038
X7.195Y-4.038
T4
X4.52Y-3.682
X4.542Y-3.28
X4.6Y-3.896
X4.698Y-3.8984
X4.786Y-3.982
X4.8521Y-3.3606
X4.898Y-3.28
X4.962Y-4.022
X5.098Y-3.982
X5.2373Y-3.3639
X5.306Y-3.28
X5.482Y-3.982
X5.6156Y-3.3474
X5.6673Y-3.2686
X5.676Y-4.028
X5.814Y-3.9744
X5.893Y-3.978
X6.038Y-4.028
X6.062Y-3.306
X6.1516Y-3.98
X6.262Y-3.98
X6.3869Y-3.3529
X6.442Y-4.024
X6.468Y-3.28
X6.528Y-3.978
X6.656Y-3.9764
X6.7708Y-3.3535
X6.81Y-4.03
X6.854Y-3.28
X7.03Y-3.9664
X7.155Y-3.3536
X7.23Y-3.28
T0
M30
